#tb 0: 1/25
#media_type 0: video
#codec_id 0: rawvideo
#dimensions 0: 720x480
#sar 0: 0/1
0,          0,          0,        1,   518400, 0x0fbb4e71
0,          1,          1,        1,   518400, 0xc46bec04
0,          2,          2,        1,   518400, 0xc50ffc1d
0,          3,          3,        1,   518400, 0x684b07b7
0,          4,          4,        1,   518400, 0xde799af0
0,          5,          5,        1,   518400, 0xed497b27
0,          6,          6,        1,   518400, 0x3e9d1e3a
0,          7,          7,        1,   518400, 0x154d3c5c
0,          8,          8,        1,   518400, 0x5257e37c
0,          9,          9,        1,   518400, 0x6e15139a
0,         10,         10,        1,   518400, 0x5dc39c59
0,         11,         11,        1,   518400, 0xe1803100
0,         12,         12,        1,   518400, 0xb4d4d535
0,         13,         13,        1,   518400, 0x7a97a25d
0,         14,         14,        1,   518400, 0xf86b8923
0,         15,         15,        1,   518400, 0x3355be98
0,         16,         16,        1,   518400, 0x8f555830
